<?xml version="1.0" encoding="utf-8"?>
<svg width="80" height="80" viewBox="0 0 80 80" xmlns="http://www.w3.org/2000/svg">
    <!-- Black background rectangle -->
    <rect width="80" height="80" fill="black"/>
    
    <!-- Original paths, scaled to fit the smaller viewBox -->
    <path d="M40.0082 0L32.688 7.32016L27.259 12.7491H29.1828V18.5042L40.0136 7.67341L72.3375 39.9973L57.17 55.1648V62.8381L62.599 57.4146L80.0163 39.9973L40.0082 0ZM50.8335 61.4904L40.0027 72.3212L22.8517 55.1702L7.68426 40.0027L22.8517 24.8353V17.151L0 40.0027L40.0027 80L52.7519 67.2509H50.8281V61.4904H50.8335Z" fill="#FFEBDF"/>
    <path d="M50.8335 31.8565V37.2855H29.1774V12.7546H22.8571V56.4201H17.4282V7.32015H34.6063V31.8565H50.8335Z" fill="#FFEBDF"/>
    <path d="M62.5882 23.5799V72.6799H45.4045V48.1489H29.1774V42.7199H50.8335V67.2454H57.1592V23.5799H62.5882Z" fill="#FFEBDF"/>
</svg>
